
<svg width="0" heiht="0" class="hidden">
	<symbol xmlns="http://www.w3.org/2000/svg" viewBox="0 0 19 16" id="images">
		<path fill-rule="evenodd" clip-rule="evenodd" d="M3 3.5V1.5C3 0.947715 3.44772 0.5 4 0.5H18C18.5523 0.5 19 0.947715 19 1.5V11.5C19 12.0523 18.5523 12.5 18 12.5H16V14.5C16 15.0523 15.5523 15.5 15 15.5H1C0.447715 15.5 0 15.0523 0 14.5V4.5C0 3.94772 0.447715 3.5 1 3.5H3ZM15 12.5H4C3.44772 12.5 3 12.0523 3 11.5V4.5H1V14.5H15V12.5ZM4 1.5V11.5H18V1.5H4ZM18 11.5H4V10.5L7 7.5L10 9.5L14 5.5L18 10.5V11.5ZM9.5 6.5C8.67157 6.5 8 5.82843 8 5C8 4.17157 8.67157 3.5 9.5 3.5C10.3284 3.5 11 4.17157 11 5C11 5.82843 10.3284 6.5 9.5 6.5Z"/>
	</symbol>
	<symbol xmlns="http://www.w3.org/2000/svg" viewBox="0 0 15 14" id="comment">
	 <path fill-rule="evenodd" clip-rule="evenodd" d="M11.1346 10.9998V13.9998L8.36064 10.9998H2.25C1.42157 10.9998 0.75 10.3282 0.75 9.49976V1.99976C0.75 1.17133 1.42157 0.499756 2.25 0.499756H12.75C13.5784 0.499756 14.25 1.17133 14.25 1.99976V9.49976C14.25 10.3282 13.5784 10.9998 12.75 10.9998H11.1346Z"/>
	</symbol>
	<symbol xmlns="http://www.w3.org/2000/svg" viewBox="0 0 15 14" id="heart">
		<path fill-rule="evenodd" clip-rule="evenodd" d="M12.8391 2.96033C12.1701 2.2119 11.2807 1.80005 10.3346 1.80005C9.38831 1.80005 8.59423 2.2119 7.925 2.96033L7.49998 3.63921L7.075 2.96033C6.40597 2.2119 5.61164 1.80005 4.66557 1.80005C3.71953 1.80005 2.82982 2.2119 2.16086 2.96033C0.779712 4.50554 0.779712 7.01968 2.16086 8.56429L7.10991 13.3207C7.19083 13.4116 7.29157 13.4672 7.39682 13.4886C7.43211 13.4964 7.46761 13.5 7.50317 13.5C7.64318 13.5 7.78341 13.4403 7.89004 13.3207L12.8391 8.56429C14.2203 7.01968 14.2203 4.50554 12.8391 2.96033Z"/>
	</symbol>
	<symbol xmlns="http://www.w3.org/2000/svg" viewBox="0 0 20 20" id="arrow">
		<path fill-rule="evenodd" clip-rule="evenodd" d="M3 9.99951V10.9995H14V13.9995L18 10.4995L14 6.99951V9.99951H3Z"/>
	</symbol>
	<symbol xmlns="http://www.w3.org/2000/svg" viewBox="0 0 14 18" id="bookmark">
		<path fill-rule="evenodd" clip-rule="evenodd" d="M2 0H12C13.1046 0 14 0.89543 14 2V18L7.09495 13L0 18V2C0 0.89543 0.89543 0 2 0Z"/>
	</symbol>
	<symbol xmlns="http://www.w3.org/2000/svg" viewBox="0 0 56 72" id="file">
		<path fill-rule="evenodd" clip-rule="evenodd" d="M40 0L56 16V68C56 70.2091 54.2091 72 52 72H4C1.79086 72 0 70.2091 0 68V4C0 1.79086 1.79086 0 4 0H40ZM36 20V4H4V68H52V20H36Z"/>
	</symbol>

</svg>
