
<svg width="0" heiht="0" class="hidden">
	<symbol xmlns="http://www.w3.org/2000/svg" viewBox="0 0 19 16" id="images">
		<path fill-rule="evenodd" clip-rule="evenodd" d="M3 3.5V1.5C3 0.947715 3.44772 0.5 4 0.5H18C18.5523 0.5 19 0.947715 19 1.5V11.5C19 12.0523 18.5523 12.5 18 12.5H16V14.5C16 15.0523 15.5523 15.5 15 15.5H1C0.447715 15.5 0 15.0523 0 14.5V4.5C0 3.94772 0.447715 3.5 1 3.5H3ZM15 12.5H4C3.44772 12.5 3 12.0523 3 11.5V4.5H1V14.5H15V12.5ZM4 1.5V11.5H18V1.5H4ZM18 11.5H4V10.5L7 7.5L10 9.5L14 5.5L18 10.5V11.5ZM9.5 6.5C8.67157 6.5 8 5.82843 8 5C8 4.17157 8.67157 3.5 9.5 3.5C10.3284 3.5 11 4.17157 11 5C11 5.82843 10.3284 6.5 9.5 6.5Z"/>
	</symbol>
	<symbol xmlns="http://www.w3.org/2000/svg" viewBox="0 0 15 14" id="comment">
	 <path fill-rule="evenodd" clip-rule="evenodd" d="M11.1346 10.9998V13.9998L8.36064 10.9998H2.25C1.42157 10.9998 0.75 10.3282 0.75 9.49976V1.99976C0.75 1.17133 1.42157 0.499756 2.25 0.499756H12.75C13.5784 0.499756 14.25 1.17133 14.25 1.99976V9.49976C14.25 10.3282 13.5784 10.9998 12.75 10.9998H11.1346Z"/>
	</symbol>
	<symbol xmlns="http://www.w3.org/2000/svg" viewBox="0 0 15 14" id="heart">
		<path fill-rule="evenodd" clip-rule="evenodd" d="M12.8391 2.96033C12.1701 2.2119 11.2807 1.80005 10.3346 1.80005C9.38831 1.80005 8.59423 2.2119 7.925 2.96033L7.49998 3.63921L7.075 2.96033C6.40597 2.2119 5.61164 1.80005 4.66557 1.80005C3.71953 1.80005 2.82982 2.2119 2.16086 2.96033C0.779712 4.50554 0.779712 7.01968 2.16086 8.56429L7.10991 13.3207C7.19083 13.4116 7.29157 13.4672 7.39682 13.4886C7.43211 13.4964 7.46761 13.5 7.50317 13.5C7.64318 13.5 7.78341 13.4403 7.89004 13.3207L12.8391 8.56429C14.2203 7.01968 14.2203 4.50554 12.8391 2.96033Z"/>
	</symbol>
	<symbol xmlns="http://www.w3.org/2000/svg" viewBox="0 0 20 20" id="arrow">
		<path fill-rule="evenodd" clip-rule="evenodd" d="M3 9.99951V10.9995H14V13.9995L18 10.4995L14 6.99951V9.99951H3Z"/>
	</symbol>
	<symbol xmlns="http://www.w3.org/2000/svg" viewBox="0 0 14 18" id="bookmark">
		<path fill-rule="evenodd" clip-rule="evenodd" d="M2 0H12C13.1046 0 14 0.89543 14 2V18L7.09495 13L0 18V2C0 0.89543 0.89543 0 2 0Z"/>
	</symbol>
	<symbol xmlns="http://www.w3.org/2000/svg" viewBox="0 0 56 72" id="file">
		<path fill-rule="evenodd" clip-rule="evenodd" d="M40 0L56 16V68C56 70.2091 54.2091 72 52 72H4C1.79086 72 0 70.2091 0 68V4C0 1.79086 1.79086 0 4 0H40ZM36 20V4H4V68H52V20H36Z"/>
	</symbol>
	<symbol xmlns="http://www.w3.org/2000/svg" viewBox="0 0 20 20" id="download">
		<path fill-rule="evenodd" clip-rule="evenodd" d="M18 13.4262C18 13.1887 18.2626 13 18.5 13C18.7374 13 19 13.1887 19 13.4262V17.56C19 17.7974 18.8051 18 18.5677 18H2.42616C2.18872 18 2 17.7974 2 17.56V13.4262C2 13.1887 2.26256 13 2.5 13C2.73744 13 3 13.1887 3 13.4262V17H18V13.4262ZM11 1V11H14L10.5 15L7 11H10V1H11Z"/>
	</symbol>
	<symbol xmlns="http://www.w3.org/2000/svg" viewBox="0 0 20 20" id="search">
		<path fill-rule="evenodd" clip-rule="evenodd" d="M18.4354 17.3951L14.146 12.9395C15.2489 11.6301 15.8532 9.98262 15.8532 8.26749C15.8532 4.26026 12.5889 1 8.5766 1C4.56435 1 1.3 4.26026 1.3 8.26749C1.3 12.2747 4.56435 15.535 8.5766 15.535C10.0829 15.535 11.5182 15.0812 12.7455 14.2199L17.0674 18.7093C17.2481 18.8967 17.4911 19 17.7514 19C17.9979 19 18.2317 18.9062 18.4092 18.7355C18.7863 18.3731 18.7983 17.7721 18.4354 17.3951ZM8.5766 2.89587C11.5423 2.89587 13.955 5.30552 13.955 8.26749C13.955 11.2295 11.5423 13.6391 8.5766 13.6391C5.61091 13.6391 3.19825 11.2295 3.19825 8.26749C3.19825 5.30552 5.61091 2.89587 8.5766 2.89587Z"/>
	</symbol>
	<symbol xmlns="http://www.w3.org/2000/svg" viewBox="0 0 18 17" id="home">
		<path fill-rule = "evenodd" clip-rule = "evenodd" d = "M2 17H7V11H11V17H16V10H18L9 0L0 10H2V17Z" />
	</symbol>
	<symbol xmlns="http://www.w3.org/2000/svg" viewBox="0 0 15 7" id="left_arrow">
		<path fill-rule = "evenodd" d = "M15 3V4H4V7L0 3.5L4 0V3H15Z" clip-rule = "evenodd"/>
	</symbol>
	<symbol xmlns="http://www.w3.org/2000/svg" viewBox="0 0 15 7" id="arrow_next">
		<path fill-rule="evenodd" clip-rule="evenodd" d="M0 3V4H11V7L15 3.5L11 0V3H0Z"/>
	</symbol>
	<symbol xmlns="http://www.w3.org/2000/svg" viewBox="0 0 15 15" id="clock">
		<path fill-rule="evenodd" clip-rule="evenodd" d="M7.5 14.25C3.77208 14.25 0.75 11.2279 0.75 7.5C0.75 3.77208 3.77208 0.75 7.5 0.75C11.2279 0.75 14.25 3.77208 14.25 7.5C14.25 11.2279 11.2279 14.25 7.5 14.25ZM8.25 7.5V4.5C8.25 4.08579 7.91421 3.75 7.5 3.75C7.08579 3.75 6.75 4.08579 6.75 4.5V8.25C6.75 8.66421 7.08579 9 7.5 9H9.75C10.1642 9 10.5 8.66421 10.5 8.25C10.5 7.83579 10.1642 7.5 9.75 7.5H8.25Z"/>
	</symbol>
	<symbol xmlns="http://www.w3.org/2000/svg" viewBox="0 0 18 18" id="pencil">
		<path fill-rule="evenodd" clip-rule="evenodd" d="M0 14.2V18H3.8L14.8 6.90004L11 3.10004L0 14.2ZM17.7 4.00004C18.1 3.60004 18.1 3.00004 17.7 2.60004L15.4 0.3C15 -0.1 14.4 -0.1 14 0.3L12.2 2.1L16 5.9L17.7 4.00004Z"/>
	</symbol>
	<symbol xmlns="http://www.w3.org/2000/svg" viewBox="0 0 15 25" id="loading">
		<path fill-rule="evenodd" clip-rule="evenodd" d="M3.43156 10.8184C4.39429 11.9973 5.85925 12.75 7.5 12.75C10.3995 12.75 12.75 10.3995 12.75 7.5H14.25C14.25 11.2279 11.2279 14.25 7.5 14.25C5.44514 14.25 3.60473 13.3318 2.36669 11.8833L1.39017 12.8598C1.31984 12.9302 1.22446 12.9697 1.125 12.9697C0.917893 12.9697 0.75 12.8018 0.75 12.5947V9.375C0.75 9.16789 0.917893 9 1.125 9H4.34467C4.44413 9 4.53951 9.03951 4.60984 9.10983C4.75628 9.25628 4.75628 9.49372 4.60984 9.64017L3.43156 10.8184ZM11.5684 4.18156C10.6057 3.00267 9.14075 2.25 7.5 2.25C4.6005 2.25 2.25 4.6005 2.25 7.5H0.75C0.75 3.77208 3.77208 0.75 7.5 0.75C9.55486 0.75 11.3953 1.6682 12.6333 3.11669L13.6098 2.14017C13.7563 1.99372 13.9937 1.99372 14.1402 2.14017C14.2105 2.21049 14.25 2.30587 14.25 2.40533V5.625C14.25 5.83211 14.0821 6 13.875 6H10.6553C10.4482 6 10.2803 5.83211 10.2803 5.625C10.2803 5.52554 10.3198 5.43016 10.3902 5.35984L11.5684 4.18156Z"/>
	</symbol>
</svg>
